<svg width="25" height="25" viewBox="0 0 25 25" fill="none" xmlns="http://www.w3.org/2000/svg">
<path d="M12.2522 8.57108C11.4363 8.57108 10.6388 8.81301 9.96047 9.26627C9.28212 9.71953 8.75341 10.3638 8.44119 11.1175C8.12898 11.8713 8.04729 12.7007 8.20646 13.5008C8.36562 14.301 8.75849 15.036 9.33538 15.6129C9.91227 16.1898 10.6473 16.5827 11.4474 16.7418C12.2476 16.901 13.077 16.8193 13.8308 16.5071C14.5845 16.1949 15.2287 15.6662 15.682 14.9878C16.1353 14.3095 16.3772 13.5119 16.3772 12.6961C16.376 11.6024 15.941 10.554 15.1676 9.78064C14.3943 9.00732 13.3458 8.57232 12.2522 8.57108ZM12.2522 16.0711C11.5847 16.0711 10.9322 15.8731 10.3771 15.5023C9.82213 15.1314 9.38955 14.6043 9.1341 13.9876C8.87866 13.3709 8.81182 12.6923 8.94205 12.0377C9.07227 11.383 9.39371 10.7816 9.86571 10.3096C10.3377 9.8376 10.9391 9.51616 11.5938 9.38593C12.2485 9.25571 12.9271 9.32254 13.5438 9.57799C14.1605 9.83344 14.6876 10.266 15.0584 10.821C15.4293 11.376 15.6272 12.0286 15.6272 12.6961C15.6272 13.5912 15.2716 14.4496 14.6387 15.0826C14.0057 15.7155 13.1473 16.0711 12.2522 16.0711ZM16.7522 3.32108H7.7522C6.45972 3.32257 5.22061 3.83666 4.3067 4.75058C3.39278 5.6645 2.87869 6.90361 2.8772 8.19608V17.1961C2.87869 18.4886 3.39278 19.7277 4.3067 20.6416C5.22061 21.5555 6.45972 22.0696 7.7522 22.0711H16.7522C18.0447 22.0696 19.2838 21.5555 20.1977 20.6416C21.1116 19.7277 21.6257 18.4886 21.6272 17.1961V8.19608C21.6257 6.90361 21.1116 5.6645 20.1977 4.75058C19.2838 3.83666 18.0447 3.32257 16.7522 3.32108ZM20.8772 17.1961C20.876 18.2897 20.441 19.3382 19.6676 20.1115C18.8943 20.8848 17.8458 21.3198 16.7522 21.3211H7.7522C6.65856 21.3198 5.61007 20.8848 4.83675 20.1115C4.06343 19.3382 3.62844 18.2897 3.6272 17.1961V8.19608C3.62844 7.10245 4.06343 6.05396 4.83675 5.28064C5.61007 4.50732 6.65856 4.07232 7.7522 4.07108H16.7522C17.8458 4.07232 18.8943 4.50732 19.6676 5.28064C20.441 6.05396 20.876 7.10245 20.8772 8.19608V17.1961ZM17.8772 7.82108C17.8772 7.96942 17.8332 8.11442 17.7508 8.23776C17.6684 8.3611 17.5513 8.45723 17.4142 8.51399C17.2772 8.57076 17.1264 8.58561 16.9809 8.55667C16.8354 8.52773 16.7018 8.4563 16.5969 8.35141C16.492 8.24652 16.4205 8.11289 16.3916 7.9674C16.3627 7.82192 16.3775 7.67111 16.4343 7.53407C16.4911 7.39703 16.5872 7.27989 16.7105 7.19748C16.8339 7.11507 16.9789 7.07108 17.1272 7.07108C17.3261 7.07108 17.5169 7.1501 17.6575 7.29075C17.7982 7.43141 17.8772 7.62217 17.8772 7.82108Z" fill="url(#paint0_linear_67_110)"/>
<path d="M12.2522 8.57108C11.4363 8.57108 10.6388 8.81301 9.96047 9.26627C9.28212 9.71953 8.75341 10.3638 8.44119 11.1175C8.12898 11.8713 8.04729 12.7007 8.20646 13.5008C8.36562 14.301 8.75849 15.036 9.33538 15.6129C9.91227 16.1898 10.6473 16.5827 11.4474 16.7418C12.2476 16.901 13.077 16.8193 13.8308 16.5071C14.5845 16.1949 15.2287 15.6662 15.682 14.9878C16.1353 14.3095 16.3772 13.5119 16.3772 12.6961C16.376 11.6024 15.941 10.554 15.1676 9.78064C14.3943 9.00732 13.3458 8.57232 12.2522 8.57108ZM12.2522 16.0711C11.5847 16.0711 10.9322 15.8731 10.3771 15.5023C9.82213 15.1314 9.38955 14.6043 9.1341 13.9876C8.87866 13.3709 8.81182 12.6923 8.94205 12.0377C9.07227 11.383 9.39371 10.7816 9.86571 10.3096C10.3377 9.8376 10.9391 9.51616 11.5938 9.38593C12.2485 9.25571 12.9271 9.32254 13.5438 9.57799C14.1605 9.83344 14.6876 10.266 15.0584 10.821C15.4293 11.376 15.6272 12.0286 15.6272 12.6961C15.6272 13.5912 15.2716 14.4496 14.6387 15.0826C14.0057 15.7155 13.1473 16.0711 12.2522 16.0711ZM16.7522 3.32108H7.7522C6.45972 3.32257 5.22061 3.83666 4.3067 4.75058C3.39278 5.6645 2.87869 6.90361 2.8772 8.19608V17.1961C2.87869 18.4886 3.39278 19.7277 4.3067 20.6416C5.22061 21.5555 6.45972 22.0696 7.7522 22.0711H16.7522C18.0447 22.0696 19.2838 21.5555 20.1977 20.6416C21.1116 19.7277 21.6257 18.4886 21.6272 17.1961V8.19608C21.6257 6.90361 21.1116 5.6645 20.1977 4.75058C19.2838 3.83666 18.0447 3.32257 16.7522 3.32108ZM20.8772 17.1961C20.876 18.2897 20.441 19.3382 19.6676 20.1115C18.8943 20.8848 17.8458 21.3198 16.7522 21.3211H7.7522C6.65856 21.3198 5.61007 20.8848 4.83675 20.1115C4.06343 19.3382 3.62844 18.2897 3.6272 17.1961V8.19608C3.62844 7.10245 4.06343 6.05396 4.83675 5.28064C5.61007 4.50732 6.65856 4.07232 7.7522 4.07108H16.7522C17.8458 4.07232 18.8943 4.50732 19.6676 5.28064C20.441 6.05396 20.876 7.10245 20.8772 8.19608V17.1961ZM17.8772 7.82108C17.8772 7.96942 17.8332 8.11442 17.7508 8.23776C17.6684 8.3611 17.5513 8.45723 17.4142 8.51399C17.2772 8.57076 17.1264 8.58561 16.9809 8.55667C16.8354 8.52773 16.7018 8.4563 16.5969 8.35141C16.492 8.24652 16.4205 8.11289 16.3916 7.9674C16.3627 7.82192 16.3775 7.67111 16.4343 7.53407C16.4911 7.39703 16.5872 7.27989 16.7105 7.19748C16.8339 7.11507 16.9789 7.07108 17.1272 7.07108C17.3261 7.07108 17.5169 7.1501 17.6575 7.29075C17.7982 7.43141 17.8772 7.62217 17.8772 7.82108Z" fill="url(#paint1_linear_67_110)" style="mix-blend-mode:overlay"/>
<path d="M12.2522 8.57108C11.4363 8.57108 10.6388 8.81301 9.96047 9.26627C9.28212 9.71953 8.75341 10.3638 8.44119 11.1175C8.12898 11.8713 8.04729 12.7007 8.20646 13.5008C8.36562 14.301 8.75849 15.036 9.33538 15.6129C9.91227 16.1898 10.6473 16.5827 11.4474 16.7418C12.2476 16.901 13.077 16.8193 13.8308 16.5071C14.5845 16.1949 15.2287 15.6662 15.682 14.9878C16.1353 14.3095 16.3772 13.5119 16.3772 12.6961C16.376 11.6024 15.941 10.554 15.1676 9.78064C14.3943 9.00732 13.3458 8.57232 12.2522 8.57108ZM12.2522 16.0711C11.5847 16.0711 10.9322 15.8731 10.3771 15.5023C9.82213 15.1314 9.38955 14.6043 9.1341 13.9876C8.87866 13.3709 8.81182 12.6923 8.94205 12.0377C9.07227 11.383 9.39371 10.7816 9.86571 10.3096C10.3377 9.8376 10.9391 9.51616 11.5938 9.38593C12.2485 9.25571 12.9271 9.32254 13.5438 9.57799C14.1605 9.83344 14.6876 10.266 15.0584 10.821C15.4293 11.376 15.6272 12.0286 15.6272 12.6961C15.6272 13.5912 15.2716 14.4496 14.6387 15.0826C14.0057 15.7155 13.1473 16.0711 12.2522 16.0711ZM16.7522 3.32108H7.7522C6.45972 3.32257 5.22061 3.83666 4.3067 4.75058C3.39278 5.6645 2.87869 6.90361 2.8772 8.19608V17.1961C2.87869 18.4886 3.39278 19.7277 4.3067 20.6416C5.22061 21.5555 6.45972 22.0696 7.7522 22.0711H16.7522C18.0447 22.0696 19.2838 21.5555 20.1977 20.6416C21.1116 19.7277 21.6257 18.4886 21.6272 17.1961V8.19608C21.6257 6.90361 21.1116 5.6645 20.1977 4.75058C19.2838 3.83666 18.0447 3.32257 16.7522 3.32108ZM20.8772 17.1961C20.876 18.2897 20.441 19.3382 19.6676 20.1115C18.8943 20.8848 17.8458 21.3198 16.7522 21.3211H7.7522C6.65856 21.3198 5.61007 20.8848 4.83675 20.1115C4.06343 19.3382 3.62844 18.2897 3.6272 17.1961V8.19608C3.62844 7.10245 4.06343 6.05396 4.83675 5.28064C5.61007 4.50732 6.65856 4.07232 7.7522 4.07108H16.7522C17.8458 4.07232 18.8943 4.50732 19.6676 5.28064C20.441 6.05396 20.876 7.10245 20.8772 8.19608V17.1961ZM17.8772 7.82108C17.8772 7.96942 17.8332 8.11442 17.7508 8.23776C17.6684 8.3611 17.5513 8.45723 17.4142 8.51399C17.2772 8.57076 17.1264 8.58561 16.9809 8.55667C16.8354 8.52773 16.7018 8.4563 16.5969 8.35141C16.492 8.24652 16.4205 8.11289 16.3916 7.9674C16.3627 7.82192 16.3775 7.67111 16.4343 7.53407C16.4911 7.39703 16.5872 7.27989 16.7105 7.19748C16.8339 7.11507 16.9789 7.07108 17.1272 7.07108C17.3261 7.07108 17.5169 7.1501 17.6575 7.29075C17.7982 7.43141 17.8772 7.62217 17.8772 7.82108Z" fill="#C1A875" style="mix-blend-mode:color"/>
<defs>
<linearGradient id="paint0_linear_67_110" x1="3.91676" y1="15.0481" x2="21.4035" y2="10.9517" gradientUnits="userSpaceOnUse">
<stop stop-color="#576265"/>
<stop offset="0.172016" stop-color="#9EA1A1"/>
<stop offset="0.45741" stop-color="#848B8A"/>
<stop offset="0.553567" stop-color="#576265"/>
<stop offset="0.823421" stop-color="#576265"/>
<stop offset="0.925155" stop-color="#757A7B"/>
<stop offset="1" stop-color="#576265"/>
</linearGradient>
<linearGradient id="paint1_linear_67_110" x1="10.3621" y1="12.6961" x2="6.62227" y2="2.93622" gradientUnits="userSpaceOnUse">
<stop stop-color="white" stop-opacity="0"/>
<stop offset="1" stop-color="white"/>
</linearGradient>
</defs>
</svg>
