<svg width="21" height="21" viewBox="0 0 21 21" fill="none" xmlns="http://www.w3.org/2000/svg">
<path d="M10.5 5.88C9.58625 5.88 8.69302 6.15096 7.93327 6.65861C7.17351 7.16626 6.58135 7.88781 6.23168 8.732C5.882 9.5762 5.79051 10.5051 5.96877 11.4013C6.14704 12.2975 6.58705 13.1207 7.23317 13.7668C7.87928 14.413 8.70249 14.853 9.59868 15.0312C10.4949 15.2095 11.4238 15.118 12.268 14.7683C13.1122 14.4186 13.8337 13.8265 14.3414 13.0667C14.849 12.307 15.12 11.4137 15.12 10.5C15.1186 9.27513 14.6314 8.10082 13.7653 7.2347C12.8992 6.36858 11.7249 5.88139 10.5 5.88ZM10.5 14.28C9.75239 14.28 9.02156 14.0583 8.39994 13.643C7.77833 13.2276 7.29383 12.6372 7.00773 11.9465C6.72164 11.2558 6.64678 10.4958 6.79263 9.76256C6.93848 9.02931 7.29849 8.35578 7.82714 7.82714C8.35578 7.29849 9.02931 6.93848 9.76256 6.79263C10.4958 6.64678 11.2558 6.72164 11.9465 7.00773C12.6372 7.29383 13.2276 7.77833 13.643 8.39994C14.0583 9.02156 14.28 9.75239 14.28 10.5C14.28 11.5025 13.8818 12.464 13.1729 13.1729C12.464 13.8818 11.5025 14.28 10.5 14.28ZM15.54 0H5.46C4.01243 0.00166739 2.62463 0.577451 1.60104 1.60104C0.577451 2.62463 0.00166739 4.01243 0 5.46V15.54C0.00166739 16.9876 0.577451 18.3754 1.60104 19.399C2.62463 20.4225 4.01243 20.9983 5.46 21H15.54C16.9876 20.9983 18.3754 20.4225 19.399 19.399C20.4225 18.3754 20.9983 16.9876 21 15.54V5.46C20.9983 4.01243 20.4225 2.62463 19.399 1.60104C18.3754 0.577451 16.9876 0.00166739 15.54 0ZM20.16 15.54C20.1586 16.7649 19.6714 17.9392 18.8053 18.8053C17.9392 19.6714 16.7649 20.1586 15.54 20.16H5.46C4.23513 20.1586 3.06082 19.6714 2.1947 18.8053C1.32858 17.9392 0.84139 16.7649 0.84 15.54V5.46C0.84139 4.23513 1.32858 3.06082 2.1947 2.1947C3.06082 1.32858 4.23513 0.84139 5.46 0.84H15.54C16.7649 0.84139 17.9392 1.32858 18.8053 2.1947C19.6714 3.06082 20.1586 4.23513 20.16 5.46V15.54ZM16.8 5.04C16.8 5.20614 16.7507 5.36854 16.6584 5.50668C16.5661 5.64482 16.4349 5.75248 16.2815 5.81606C16.128 5.87964 15.9591 5.89627 15.7961 5.86386C15.6332 5.83145 15.4835 5.75145 15.366 5.63397C15.2486 5.51649 15.1686 5.36682 15.1361 5.20388C15.1037 5.04093 15.1204 4.87204 15.1839 4.71855C15.2475 4.56506 15.3552 4.43387 15.4933 4.34157C15.6315 4.24927 15.7939 4.2 15.96 4.2C16.1828 4.2 16.3964 4.2885 16.554 4.44603C16.7115 4.60356 16.8 4.81722 16.8 5.04Z" fill="url(#paint0_linear_67_111)"/>
<path d="M10.5 5.88C9.58625 5.88 8.69302 6.15096 7.93327 6.65861C7.17351 7.16626 6.58135 7.88781 6.23168 8.732C5.882 9.5762 5.79051 10.5051 5.96877 11.4013C6.14704 12.2975 6.58705 13.1207 7.23317 13.7668C7.87928 14.413 8.70249 14.853 9.59868 15.0312C10.4949 15.2095 11.4238 15.118 12.268 14.7683C13.1122 14.4186 13.8337 13.8265 14.3414 13.0667C14.849 12.307 15.12 11.4137 15.12 10.5C15.1186 9.27513 14.6314 8.10082 13.7653 7.2347C12.8992 6.36858 11.7249 5.88139 10.5 5.88ZM10.5 14.28C9.75239 14.28 9.02156 14.0583 8.39994 13.643C7.77833 13.2276 7.29383 12.6372 7.00773 11.9465C6.72164 11.2558 6.64678 10.4958 6.79263 9.76256C6.93848 9.02931 7.29849 8.35578 7.82714 7.82714C8.35578 7.29849 9.02931 6.93848 9.76256 6.79263C10.4958 6.64678 11.2558 6.72164 11.9465 7.00773C12.6372 7.29383 13.2276 7.77833 13.643 8.39994C14.0583 9.02156 14.28 9.75239 14.28 10.5C14.28 11.5025 13.8818 12.464 13.1729 13.1729C12.464 13.8818 11.5025 14.28 10.5 14.28ZM15.54 0H5.46C4.01243 0.00166739 2.62463 0.577451 1.60104 1.60104C0.577451 2.62463 0.00166739 4.01243 0 5.46V15.54C0.00166739 16.9876 0.577451 18.3754 1.60104 19.399C2.62463 20.4225 4.01243 20.9983 5.46 21H15.54C16.9876 20.9983 18.3754 20.4225 19.399 19.399C20.4225 18.3754 20.9983 16.9876 21 15.54V5.46C20.9983 4.01243 20.4225 2.62463 19.399 1.60104C18.3754 0.577451 16.9876 0.00166739 15.54 0ZM20.16 15.54C20.1586 16.7649 19.6714 17.9392 18.8053 18.8053C17.9392 19.6714 16.7649 20.1586 15.54 20.16H5.46C4.23513 20.1586 3.06082 19.6714 2.1947 18.8053C1.32858 17.9392 0.84139 16.7649 0.84 15.54V5.46C0.84139 4.23513 1.32858 3.06082 2.1947 2.1947C3.06082 1.32858 4.23513 0.84139 5.46 0.84H15.54C16.7649 0.84139 17.9392 1.32858 18.8053 2.1947C19.6714 3.06082 20.1586 4.23513 20.16 5.46V15.54ZM16.8 5.04C16.8 5.20614 16.7507 5.36854 16.6584 5.50668C16.5661 5.64482 16.4349 5.75248 16.2815 5.81606C16.128 5.87964 15.9591 5.89627 15.7961 5.86386C15.6332 5.83145 15.4835 5.75145 15.366 5.63397C15.2486 5.51649 15.1686 5.36682 15.1361 5.20388C15.1037 5.04093 15.1204 4.87204 15.1839 4.71855C15.2475 4.56506 15.3552 4.43387 15.4933 4.34157C15.6315 4.24927 15.7939 4.2 15.96 4.2C16.1828 4.2 16.3964 4.2885 16.554 4.44603C16.7115 4.60356 16.8 4.81722 16.8 5.04Z" fill="url(#paint1_linear_67_111)" style="mix-blend-mode:overlay"/>
<path d="M10.5 5.88C9.58625 5.88 8.69302 6.15096 7.93327 6.65861C7.17351 7.16626 6.58135 7.88781 6.23168 8.732C5.882 9.5762 5.79051 10.5051 5.96877 11.4013C6.14704 12.2975 6.58705 13.1207 7.23317 13.7668C7.87928 14.413 8.70249 14.853 9.59868 15.0312C10.4949 15.2095 11.4238 15.118 12.268 14.7683C13.1122 14.4186 13.8337 13.8265 14.3414 13.0667C14.849 12.307 15.12 11.4137 15.12 10.5C15.1186 9.27513 14.6314 8.10082 13.7653 7.2347C12.8992 6.36858 11.7249 5.88139 10.5 5.88ZM10.5 14.28C9.75239 14.28 9.02156 14.0583 8.39994 13.643C7.77833 13.2276 7.29383 12.6372 7.00773 11.9465C6.72164 11.2558 6.64678 10.4958 6.79263 9.76256C6.93848 9.02931 7.29849 8.35578 7.82714 7.82714C8.35578 7.29849 9.02931 6.93848 9.76256 6.79263C10.4958 6.64678 11.2558 6.72164 11.9465 7.00773C12.6372 7.29383 13.2276 7.77833 13.643 8.39994C14.0583 9.02156 14.28 9.75239 14.28 10.5C14.28 11.5025 13.8818 12.464 13.1729 13.1729C12.464 13.8818 11.5025 14.28 10.5 14.28ZM15.54 0H5.46C4.01243 0.00166739 2.62463 0.577451 1.60104 1.60104C0.577451 2.62463 0.00166739 4.01243 0 5.46V15.54C0.00166739 16.9876 0.577451 18.3754 1.60104 19.399C2.62463 20.4225 4.01243 20.9983 5.46 21H15.54C16.9876 20.9983 18.3754 20.4225 19.399 19.399C20.4225 18.3754 20.9983 16.9876 21 15.54V5.46C20.9983 4.01243 20.4225 2.62463 19.399 1.60104C18.3754 0.577451 16.9876 0.00166739 15.54 0ZM20.16 15.54C20.1586 16.7649 19.6714 17.9392 18.8053 18.8053C17.9392 19.6714 16.7649 20.1586 15.54 20.16H5.46C4.23513 20.1586 3.06082 19.6714 2.1947 18.8053C1.32858 17.9392 0.84139 16.7649 0.84 15.54V5.46C0.84139 4.23513 1.32858 3.06082 2.1947 2.1947C3.06082 1.32858 4.23513 0.84139 5.46 0.84H15.54C16.7649 0.84139 17.9392 1.32858 18.8053 2.1947C19.6714 3.06082 20.1586 4.23513 20.16 5.46V15.54ZM16.8 5.04C16.8 5.20614 16.7507 5.36854 16.6584 5.50668C16.5661 5.64482 16.4349 5.75248 16.2815 5.81606C16.128 5.87964 15.9591 5.89627 15.7961 5.86386C15.6332 5.83145 15.4835 5.75145 15.366 5.63397C15.2486 5.51649 15.1686 5.36682 15.1361 5.20388C15.1037 5.04093 15.1204 4.87204 15.1839 4.71855C15.2475 4.56506 15.3552 4.43387 15.4933 4.34157C15.6315 4.24927 15.7939 4.2 15.96 4.2C16.1828 4.2 16.3964 4.2885 16.554 4.44603C16.7115 4.60356 16.8 4.81722 16.8 5.04Z" fill="#C1A875" style="mix-blend-mode:color"/>
<defs>
<linearGradient id="paint0_linear_67_111" x1="1.16431" y1="13.1342" x2="20.7495" y2="8.54631" gradientUnits="userSpaceOnUse">
<stop stop-color="#576265"/>
<stop offset="0.172016" stop-color="#9EA1A1"/>
<stop offset="0.45741" stop-color="#848B8A"/>
<stop offset="0.553567" stop-color="#576265"/>
<stop offset="0.823421" stop-color="#576265"/>
<stop offset="0.925155" stop-color="#757A7B"/>
<stop offset="1" stop-color="#576265"/>
</linearGradient>
<linearGradient id="paint1_linear_67_111" x1="8.38306" y1="10.5" x2="4.19448" y2="-0.43105" gradientUnits="userSpaceOnUse">
<stop stop-color="white" stop-opacity="0"/>
<stop offset="1" stop-color="white"/>
</linearGradient>
</defs>
</svg>
