<svg width="19" height="19" viewBox="0 0 19 19" fill="none" xmlns="http://www.w3.org/2000/svg">
<path d="M17.625 0H1.125C0.826631 0 0.540483 0.118526 0.329505 0.329505C0.118526 0.540483 0 0.826631 0 1.125V17.625C0 17.9234 0.118526 18.2095 0.329505 18.4205C0.540483 18.6315 0.826631 18.75 1.125 18.75H17.625C17.9234 18.75 18.2095 18.6315 18.4205 18.4205C18.6315 18.2095 18.75 17.9234 18.75 17.625V1.125C18.75 0.826631 18.6315 0.540483 18.4205 0.329505C18.2095 0.118526 17.9234 0 17.625 0ZM18 17.625C18 17.7245 17.9605 17.8198 17.8902 17.8902C17.8198 17.9605 17.7245 18 17.625 18H1.125C1.02554 18 0.930161 17.9605 0.859835 17.8902C0.789509 17.8198 0.75 17.7245 0.75 17.625V1.125C0.75 1.02554 0.789509 0.930161 0.859835 0.859835C0.930161 0.789509 1.02554 0.75 1.125 0.75H17.625C17.7245 0.75 17.8198 0.789509 17.8902 0.859835C17.9605 0.930161 18 1.02554 18 1.125V17.625ZM6 7.875V13.875C6 13.9745 5.96049 14.0698 5.89017 14.1402C5.81984 14.2105 5.72446 14.25 5.625 14.25C5.52554 14.25 5.43016 14.2105 5.35983 14.1402C5.28951 14.0698 5.25 13.9745 5.25 13.875V7.875C5.25 7.77554 5.28951 7.68016 5.35983 7.60983C5.43016 7.53951 5.52554 7.5 5.625 7.5C5.72446 7.5 5.81984 7.53951 5.89017 7.60983C5.96049 7.68016 6 7.77554 6 7.875ZM14.25 10.5V13.875C14.25 13.9745 14.2105 14.0698 14.1402 14.1402C14.0698 14.2105 13.9745 14.25 13.875 14.25C13.7755 14.25 13.6802 14.2105 13.6098 14.1402C13.5395 14.0698 13.5 13.9745 13.5 13.875V10.5C13.5 9.90326 13.2629 9.33097 12.841 8.90901C12.419 8.48705 11.8467 8.25 11.25 8.25C10.6533 8.25 10.081 8.48705 9.65901 8.90901C9.23705 9.33097 9 9.90326 9 10.5V13.875C9 13.9745 8.96049 14.0698 8.89017 14.1402C8.81984 14.2105 8.72446 14.25 8.625 14.25C8.52554 14.25 8.43016 14.2105 8.35983 14.1402C8.28951 14.0698 8.25 13.9745 8.25 13.875V7.875C8.25 7.77554 8.28951 7.68016 8.35983 7.60983C8.43016 7.53951 8.52554 7.5 8.625 7.5C8.72446 7.5 8.81984 7.53951 8.89017 7.60983C8.96049 7.68016 9 7.77554 9 7.875V8.51906C9.40287 8.06225 9.93523 7.73889 10.5263 7.59197C11.1174 7.44504 11.7392 7.48151 12.3091 7.69653C12.8789 7.91155 13.3699 8.29494 13.7166 8.79571C14.0633 9.29648 14.2493 9.89092 14.25 10.5ZM6.375 5.25C6.375 5.39834 6.33101 5.54334 6.2486 5.66668C6.16619 5.79001 6.04906 5.88614 5.91201 5.94291C5.77497 5.99968 5.62417 6.01453 5.47868 5.98559C5.3332 5.95665 5.19956 5.88522 5.09467 5.78033C4.98978 5.67544 4.91835 5.5418 4.88941 5.39632C4.86047 5.25083 4.87532 5.10003 4.93209 4.96299C4.98886 4.82594 5.08499 4.70881 5.20832 4.6264C5.33166 4.54399 5.47666 4.5 5.625 4.5C5.82391 4.5 6.01468 4.57902 6.15533 4.71967C6.29598 4.86032 6.375 5.05109 6.375 5.25Z" fill="url(#paint0_linear_68_132)"/>
<path d="M17.625 0H1.125C0.826631 0 0.540483 0.118526 0.329505 0.329505C0.118526 0.540483 0 0.826631 0 1.125V17.625C0 17.9234 0.118526 18.2095 0.329505 18.4205C0.540483 18.6315 0.826631 18.75 1.125 18.75H17.625C17.9234 18.75 18.2095 18.6315 18.4205 18.4205C18.6315 18.2095 18.75 17.9234 18.75 17.625V1.125C18.75 0.826631 18.6315 0.540483 18.4205 0.329505C18.2095 0.118526 17.9234 0 17.625 0ZM18 17.625C18 17.7245 17.9605 17.8198 17.8902 17.8902C17.8198 17.9605 17.7245 18 17.625 18H1.125C1.02554 18 0.930161 17.9605 0.859835 17.8902C0.789509 17.8198 0.75 17.7245 0.75 17.625V1.125C0.75 1.02554 0.789509 0.930161 0.859835 0.859835C0.930161 0.789509 1.02554 0.75 1.125 0.75H17.625C17.7245 0.75 17.8198 0.789509 17.8902 0.859835C17.9605 0.930161 18 1.02554 18 1.125V17.625ZM6 7.875V13.875C6 13.9745 5.96049 14.0698 5.89017 14.1402C5.81984 14.2105 5.72446 14.25 5.625 14.25C5.52554 14.25 5.43016 14.2105 5.35983 14.1402C5.28951 14.0698 5.25 13.9745 5.25 13.875V7.875C5.25 7.77554 5.28951 7.68016 5.35983 7.60983C5.43016 7.53951 5.52554 7.5 5.625 7.5C5.72446 7.5 5.81984 7.53951 5.89017 7.60983C5.96049 7.68016 6 7.77554 6 7.875ZM14.25 10.5V13.875C14.25 13.9745 14.2105 14.0698 14.1402 14.1402C14.0698 14.2105 13.9745 14.25 13.875 14.25C13.7755 14.25 13.6802 14.2105 13.6098 14.1402C13.5395 14.0698 13.5 13.9745 13.5 13.875V10.5C13.5 9.90326 13.2629 9.33097 12.841 8.90901C12.419 8.48705 11.8467 8.25 11.25 8.25C10.6533 8.25 10.081 8.48705 9.65901 8.90901C9.23705 9.33097 9 9.90326 9 10.5V13.875C9 13.9745 8.96049 14.0698 8.89017 14.1402C8.81984 14.2105 8.72446 14.25 8.625 14.25C8.52554 14.25 8.43016 14.2105 8.35983 14.1402C8.28951 14.0698 8.25 13.9745 8.25 13.875V7.875C8.25 7.77554 8.28951 7.68016 8.35983 7.60983C8.43016 7.53951 8.52554 7.5 8.625 7.5C8.72446 7.5 8.81984 7.53951 8.89017 7.60983C8.96049 7.68016 9 7.77554 9 7.875V8.51906C9.40287 8.06225 9.93523 7.73889 10.5263 7.59197C11.1174 7.44504 11.7392 7.48151 12.3091 7.69653C12.8789 7.91155 13.3699 8.29494 13.7166 8.79571C14.0633 9.29648 14.2493 9.89092 14.25 10.5ZM6.375 5.25C6.375 5.39834 6.33101 5.54334 6.2486 5.66668C6.16619 5.79001 6.04906 5.88614 5.91201 5.94291C5.77497 5.99968 5.62417 6.01453 5.47868 5.98559C5.3332 5.95665 5.19956 5.88522 5.09467 5.78033C4.98978 5.67544 4.91835 5.5418 4.88941 5.39632C4.86047 5.25083 4.87532 5.10003 4.93209 4.96299C4.98886 4.82594 5.08499 4.70881 5.20832 4.6264C5.33166 4.54399 5.47666 4.5 5.625 4.5C5.82391 4.5 6.01468 4.57902 6.15533 4.71967C6.29598 4.86032 6.375 5.05109 6.375 5.25Z" fill="url(#paint1_linear_68_132)" style="mix-blend-mode:overlay"/>
<path d="M17.625 0H1.125C0.826631 0 0.540483 0.118526 0.329505 0.329505C0.118526 0.540483 0 0.826631 0 1.125V17.625C0 17.9234 0.118526 18.2095 0.329505 18.4205C0.540483 18.6315 0.826631 18.75 1.125 18.75H17.625C17.9234 18.75 18.2095 18.6315 18.4205 18.4205C18.6315 18.2095 18.75 17.9234 18.75 17.625V1.125C18.75 0.826631 18.6315 0.540483 18.4205 0.329505C18.2095 0.118526 17.9234 0 17.625 0ZM18 17.625C18 17.7245 17.9605 17.8198 17.8902 17.8902C17.8198 17.9605 17.7245 18 17.625 18H1.125C1.02554 18 0.930161 17.9605 0.859835 17.8902C0.789509 17.8198 0.75 17.7245 0.75 17.625V1.125C0.75 1.02554 0.789509 0.930161 0.859835 0.859835C0.930161 0.789509 1.02554 0.75 1.125 0.75H17.625C17.7245 0.75 17.8198 0.789509 17.8902 0.859835C17.9605 0.930161 18 1.02554 18 1.125V17.625ZM6 7.875V13.875C6 13.9745 5.96049 14.0698 5.89017 14.1402C5.81984 14.2105 5.72446 14.25 5.625 14.25C5.52554 14.25 5.43016 14.2105 5.35983 14.1402C5.28951 14.0698 5.25 13.9745 5.25 13.875V7.875C5.25 7.77554 5.28951 7.68016 5.35983 7.60983C5.43016 7.53951 5.52554 7.5 5.625 7.5C5.72446 7.5 5.81984 7.53951 5.89017 7.60983C5.96049 7.68016 6 7.77554 6 7.875ZM14.25 10.5V13.875C14.25 13.9745 14.2105 14.0698 14.1402 14.1402C14.0698 14.2105 13.9745 14.25 13.875 14.25C13.7755 14.25 13.6802 14.2105 13.6098 14.1402C13.5395 14.0698 13.5 13.9745 13.5 13.875V10.5C13.5 9.90326 13.2629 9.33097 12.841 8.90901C12.419 8.48705 11.8467 8.25 11.25 8.25C10.6533 8.25 10.081 8.48705 9.65901 8.90901C9.23705 9.33097 9 9.90326 9 10.5V13.875C9 13.9745 8.96049 14.0698 8.89017 14.1402C8.81984 14.2105 8.72446 14.25 8.625 14.25C8.52554 14.25 8.43016 14.2105 8.35983 14.1402C8.28951 14.0698 8.25 13.9745 8.25 13.875V7.875C8.25 7.77554 8.28951 7.68016 8.35983 7.60983C8.43016 7.53951 8.52554 7.5 8.625 7.5C8.72446 7.5 8.81984 7.53951 8.89017 7.60983C8.96049 7.68016 9 7.77554 9 7.875V8.51906C9.40287 8.06225 9.93523 7.73889 10.5263 7.59197C11.1174 7.44504 11.7392 7.48151 12.3091 7.69653C12.8789 7.91155 13.3699 8.29494 13.7166 8.79571C14.0633 9.29648 14.2493 9.89092 14.25 10.5ZM6.375 5.25C6.375 5.39834 6.33101 5.54334 6.2486 5.66668C6.16619 5.79001 6.04906 5.88614 5.91201 5.94291C5.77497 5.99968 5.62417 6.01453 5.47868 5.98559C5.3332 5.95665 5.19956 5.88522 5.09467 5.78033C4.98978 5.67544 4.91835 5.5418 4.88941 5.39632C4.86047 5.25083 4.87532 5.10003 4.93209 4.96299C4.98886 4.82594 5.08499 4.70881 5.20832 4.6264C5.33166 4.54399 5.47666 4.5 5.625 4.5C5.82391 4.5 6.01468 4.57902 6.15533 4.71967C6.29598 4.86032 6.375 5.05109 6.375 5.25Z" fill="#C1A875" style="mix-blend-mode:color"/>
<defs>
<linearGradient id="paint0_linear_68_132" x1="1.03957" y1="11.727" x2="18.5263" y2="7.63063" gradientUnits="userSpaceOnUse">
<stop stop-color="#576265"/>
<stop offset="0.172016" stop-color="#9EA1A1"/>
<stop offset="0.45741" stop-color="#848B8A"/>
<stop offset="0.553567" stop-color="#576265"/>
<stop offset="0.823421" stop-color="#576265"/>
<stop offset="0.925155" stop-color="#757A7B"/>
<stop offset="1" stop-color="#576265"/>
</linearGradient>
<linearGradient id="paint1_linear_68_132" x1="7.48488" y1="9.375" x2="3.74507" y2="-0.384866" gradientUnits="userSpaceOnUse">
<stop stop-color="white" stop-opacity="0"/>
<stop offset="1" stop-color="white"/>
</linearGradient>
</defs>
</svg>
