<svg width="130" height="128" viewBox="0 0 130 128" fill="none" xmlns="http://www.w3.org/2000/svg">
<path d="M111.719 64C111.719 64.5304 111.505 65.0391 111.124 65.4142C110.743 65.7893 110.226 66 109.688 66H20.3125C19.7738 66 19.2571 65.7893 18.8762 65.4142C18.4953 65.0391 18.2812 64.5304 18.2812 64C18.2812 63.4696 18.4953 62.9609 18.8762 62.5858C19.2571 62.2107 19.7738 62 20.3125 62H109.688C110.226 62 110.743 62.2107 111.124 62.5858C111.505 62.9609 111.719 63.4696 111.719 64ZM20.3125 34H109.688C110.226 34 110.743 33.7893 111.124 33.4142C111.505 33.0391 111.719 32.5304 111.719 32C111.719 31.4696 111.505 30.9609 111.124 30.5858C110.743 30.2107 110.226 30 109.688 30H20.3125C19.7738 30 19.2571 30.2107 18.8762 30.5858C18.4953 30.9609 18.2812 31.4696 18.2812 32C18.2812 32.5304 18.4953 33.0391 18.8762 33.4142C19.2571 33.7893 19.7738 34 20.3125 34ZM109.688 94H20.3125C19.7738 94 19.2571 94.2107 18.8762 94.5858C18.4953 94.9609 18.2812 95.4696 18.2812 96C18.2812 96.5304 18.4953 97.0391 18.8762 97.4142C19.2571 97.7893 19.7738 98 20.3125 98H109.688C110.226 98 110.743 97.7893 111.124 97.4142C111.505 97.0391 111.719 96.5304 111.719 96C111.719 95.4696 111.505 94.9609 111.124 94.5858C110.743 94.2107 110.226 94 109.688 94Z" fill="url(#paint0_linear_36_117)"/>
<path d="M111.719 64C111.719 64.5304 111.505 65.0391 111.124 65.4142C110.743 65.7893 110.226 66 109.688 66H20.3125C19.7738 66 19.2571 65.7893 18.8762 65.4142C18.4953 65.0391 18.2812 64.5304 18.2812 64C18.2812 63.4696 18.4953 62.9609 18.8762 62.5858C19.2571 62.2107 19.7738 62 20.3125 62H109.688C110.226 62 110.743 62.2107 111.124 62.5858C111.505 62.9609 111.719 63.4696 111.719 64ZM20.3125 34H109.688C110.226 34 110.743 33.7893 111.124 33.4142C111.505 33.0391 111.719 32.5304 111.719 32C111.719 31.4696 111.505 30.9609 111.124 30.5858C110.743 30.2107 110.226 30 109.688 30H20.3125C19.7738 30 19.2571 30.2107 18.8762 30.5858C18.4953 30.9609 18.2812 31.4696 18.2812 32C18.2812 32.5304 18.4953 33.0391 18.8762 33.4142C19.2571 33.7893 19.7738 34 20.3125 34ZM109.688 94H20.3125C19.7738 94 19.2571 94.2107 18.8762 94.5858C18.4953 94.9609 18.2812 95.4696 18.2812 96C18.2812 96.5304 18.4953 97.0391 18.8762 97.4142C19.2571 97.7893 19.7738 98 20.3125 98H109.688C110.226 98 110.743 97.7893 111.124 97.4142C111.505 97.0391 111.719 96.5304 111.719 96C111.719 95.4696 111.505 94.9609 111.124 94.5858C110.743 94.2107 110.226 94 109.688 94Z" fill="url(#paint1_linear_36_117)" style="mix-blend-mode:overlay"/>
<path d="M111.719 64C111.719 64.5304 111.505 65.0391 111.124 65.4142C110.743 65.7893 110.226 66 109.688 66H20.3125C19.7738 66 19.2571 65.7893 18.8762 65.4142C18.4953 65.0391 18.2812 64.5304 18.2812 64C18.2812 63.4696 18.4953 62.9609 18.8762 62.5858C19.2571 62.2107 19.7738 62 20.3125 62H109.688C110.226 62 110.743 62.2107 111.124 62.5858C111.505 62.9609 111.719 63.4696 111.719 64ZM20.3125 34H109.688C110.226 34 110.743 33.7893 111.124 33.4142C111.505 33.0391 111.719 32.5304 111.719 32C111.719 31.4696 111.505 30.9609 111.124 30.5858C110.743 30.2107 110.226 30 109.688 30H20.3125C19.7738 30 19.2571 30.2107 18.8762 30.5858C18.4953 30.9609 18.2812 31.4696 18.2812 32C18.2812 32.5304 18.4953 33.0391 18.8762 33.4142C19.2571 33.7893 19.7738 34 20.3125 34ZM109.688 94H20.3125C19.7738 94 19.2571 94.2107 18.8762 94.5858C18.4953 94.9609 18.2812 95.4696 18.2812 96C18.2812 96.5304 18.4953 97.0391 18.8762 97.4142C19.2571 97.7893 19.7738 98 20.3125 98H109.688C110.226 98 110.743 97.7893 111.124 97.4142C111.505 97.0391 111.719 96.5304 111.719 96C111.719 95.4696 111.505 94.9609 111.124 94.5858C110.743 94.2107 110.226 94 109.688 94Z" fill="#C1A875" style="mix-blend-mode:color"/>
<defs>
<linearGradient id="paint0_linear_36_117" x1="23.4618" y1="72.5298" x2="106.756" y2="45.7188" gradientUnits="userSpaceOnUse">
<stop stop-color="#576265"/>
<stop offset="0.172016" stop-color="#9EA1A1"/>
<stop offset="0.45741" stop-color="#848B8A"/>
<stop offset="0.553567" stop-color="#576265"/>
<stop offset="0.823421" stop-color="#576265"/>
<stop offset="0.925155" stop-color="#757A7B"/>
<stop offset="1" stop-color="#576265"/>
</linearGradient>
<linearGradient id="paint1_linear_36_117" x1="55.5809" y1="64" x2="45.0778" y2="26.3361" gradientUnits="userSpaceOnUse">
<stop stop-color="white" stop-opacity="0"/>
<stop offset="1" stop-color="white"/>
</linearGradient>
</defs>
</svg>
